<mxfile host="app.diagrams.net" agent="Mozilla/5.0 (Windows NT 10.0; Win64; x64) AppleWebKit/537.36 (KHTML, like Gecko) Chrome/134.0.0.0 Safari/537.36" version="26.1.1">
  <diagram name="Страница — 1" id="QzphKiRluAe46n7qeO1K">
    <mxGraphModel dx="2261" dy="780" grid="1" gridSize="10" guides="1" tooltips="1" connect="1" arrows="1" fold="1" page="1" pageScale="1" pageWidth="827" pageHeight="1169" math="0" shadow="0">
      <root>
        <mxCell id="0" />
        <mxCell id="1" parent="0" />
        <mxCell id="Rw42D6xPt4BI_WVMwV_L-1" value="Ввод формата&lt;div&gt;xls&lt;/div&gt;" style="ellipse;whiteSpace=wrap;html=1;" vertex="1" parent="1">
          <mxGeometry x="-40" y="70" width="120" height="80" as="geometry" />
        </mxCell>
        <mxCell id="Rw42D6xPt4BI_WVMwV_L-2" value="Ввод формата csv" style="ellipse;whiteSpace=wrap;html=1;" vertex="1" parent="1">
          <mxGeometry x="150" y="50" width="120" height="80" as="geometry" />
        </mxCell>
        <mxCell id="Rw42D6xPt4BI_WVMwV_L-3" value="Ввод формата&lt;div&gt;json&lt;/div&gt;" style="ellipse;whiteSpace=wrap;html=1;" vertex="1" parent="1">
          <mxGeometry x="300" y="60" width="120" height="80" as="geometry" />
        </mxCell>
        <mxCell id="Rw42D6xPt4BI_WVMwV_L-4" value="Пользователь" style="shape=umlActor;verticalLabelPosition=bottom;verticalAlign=top;html=1;outlineConnect=0;" vertex="1" parent="1">
          <mxGeometry x="-70" y="270" width="30" height="60" as="geometry" />
        </mxCell>
        <mxCell id="Rw42D6xPt4BI_WVMwV_L-5" value="Библиотека" style="shape=umlActor;verticalLabelPosition=bottom;verticalAlign=top;html=1;outlineConnect=0;" vertex="1" parent="1">
          <mxGeometry x="760" y="330" width="30" height="60" as="geometry" />
        </mxCell>
        <mxCell id="Rw42D6xPt4BI_WVMwV_L-6" value="Ввод данных" style="ellipse;whiteSpace=wrap;html=1;" vertex="1" parent="1">
          <mxGeometry x="130" y="190" width="120" height="80" as="geometry" />
        </mxCell>
        <mxCell id="Rw42D6xPt4BI_WVMwV_L-7" value="использование сервиса" style="ellipse;whiteSpace=wrap;html=1;" vertex="1" parent="1">
          <mxGeometry x="110" y="340" width="120" height="80" as="geometry" />
        </mxCell>
        <mxCell id="Rw42D6xPt4BI_WVMwV_L-8" value="Проведение общей/стандартизированной предобработки" style="ellipse;whiteSpace=wrap;html=1;" vertex="1" parent="1">
          <mxGeometry x="370" y="270" width="120" height="80" as="geometry" />
        </mxCell>
        <mxCell id="Rw42D6xPt4BI_WVMwV_L-9" value="Предоставление стандартного решения" style="ellipse;whiteSpace=wrap;html=1;" vertex="1" parent="1">
          <mxGeometry x="580" y="260" width="120" height="80" as="geometry" />
        </mxCell>
        <mxCell id="Rw42D6xPt4BI_WVMwV_L-10" value="Предоставления набора функций по работе с данными" style="ellipse;whiteSpace=wrap;html=1;" vertex="1" parent="1">
          <mxGeometry x="510" y="425" width="120" height="80" as="geometry" />
        </mxCell>
        <mxCell id="Rw42D6xPt4BI_WVMwV_L-11" value="Проведение специфичной предобработки" style="ellipse;whiteSpace=wrap;html=1;" vertex="1" parent="1">
          <mxGeometry x="250" y="450" width="120" height="80" as="geometry" />
        </mxCell>
        <mxCell id="Rw42D6xPt4BI_WVMwV_L-15" value="" style="endArrow=block;dashed=1;endFill=0;endSize=12;html=1;rounded=0;exitX=0.5;exitY=1;exitDx=0;exitDy=0;" edge="1" parent="1" source="Rw42D6xPt4BI_WVMwV_L-1" target="Rw42D6xPt4BI_WVMwV_L-6">
          <mxGeometry width="160" relative="1" as="geometry">
            <mxPoint x="330" y="400" as="sourcePoint" />
            <mxPoint x="490" y="400" as="targetPoint" />
          </mxGeometry>
        </mxCell>
        <mxCell id="Rw42D6xPt4BI_WVMwV_L-16" value="" style="endArrow=block;dashed=1;endFill=0;endSize=12;html=1;rounded=0;exitX=0.417;exitY=1.025;exitDx=0;exitDy=0;entryX=0.558;entryY=0;entryDx=0;entryDy=0;entryPerimeter=0;exitPerimeter=0;" edge="1" parent="1" source="Rw42D6xPt4BI_WVMwV_L-2" target="Rw42D6xPt4BI_WVMwV_L-6">
          <mxGeometry width="160" relative="1" as="geometry">
            <mxPoint x="330" y="400" as="sourcePoint" />
            <mxPoint x="490" y="400" as="targetPoint" />
          </mxGeometry>
        </mxCell>
        <mxCell id="Rw42D6xPt4BI_WVMwV_L-22" value="" style="endArrow=none;html=1;rounded=0;exitX=1.008;exitY=0.588;exitDx=0;exitDy=0;exitPerimeter=0;entryX=0.5;entryY=0.5;entryDx=0;entryDy=0;entryPerimeter=0;" edge="1" parent="1" source="Rw42D6xPt4BI_WVMwV_L-9" target="Rw42D6xPt4BI_WVMwV_L-5">
          <mxGeometry width="50" height="50" relative="1" as="geometry">
            <mxPoint x="380" y="430" as="sourcePoint" />
            <mxPoint x="430" y="380" as="targetPoint" />
          </mxGeometry>
        </mxCell>
        <mxCell id="Rw42D6xPt4BI_WVMwV_L-23" value="" style="endArrow=none;html=1;rounded=0;exitX=0.992;exitY=0.35;exitDx=0;exitDy=0;exitPerimeter=0;entryX=0.5;entryY=0.5;entryDx=0;entryDy=0;entryPerimeter=0;" edge="1" parent="1" source="Rw42D6xPt4BI_WVMwV_L-10" target="Rw42D6xPt4BI_WVMwV_L-5">
          <mxGeometry width="50" height="50" relative="1" as="geometry">
            <mxPoint x="380" y="430" as="sourcePoint" />
            <mxPoint x="430" y="380" as="targetPoint" />
          </mxGeometry>
        </mxCell>
        <mxCell id="Rw42D6xPt4BI_WVMwV_L-24" value="include" style="endArrow=open;endSize=12;dashed=1;html=1;rounded=0;exitX=0;exitY=0.5;exitDx=0;exitDy=0;entryX=0.992;entryY=0.4;entryDx=0;entryDy=0;entryPerimeter=0;" edge="1" parent="1" source="Rw42D6xPt4BI_WVMwV_L-8" target="Rw42D6xPt4BI_WVMwV_L-7">
          <mxGeometry width="160" relative="1" as="geometry">
            <mxPoint x="330" y="400" as="sourcePoint" />
            <mxPoint x="490" y="400" as="targetPoint" />
          </mxGeometry>
        </mxCell>
        <mxCell id="Rw42D6xPt4BI_WVMwV_L-25" value="include" style="endArrow=open;endSize=12;dashed=1;html=1;rounded=0;entryX=0.5;entryY=1;entryDx=0;entryDy=0;" edge="1" parent="1" source="Rw42D6xPt4BI_WVMwV_L-11" target="Rw42D6xPt4BI_WVMwV_L-7">
          <mxGeometry width="160" relative="1" as="geometry">
            <mxPoint x="160" y="500" as="sourcePoint" />
            <mxPoint x="149" y="542" as="targetPoint" />
          </mxGeometry>
        </mxCell>
        <mxCell id="Rw42D6xPt4BI_WVMwV_L-27" value="Extends" style="endArrow=block;endSize=16;endFill=0;html=1;rounded=0;exitX=1;exitY=0.5;exitDx=0;exitDy=0;entryX=0;entryY=0.5;entryDx=0;entryDy=0;" edge="1" parent="1" source="Rw42D6xPt4BI_WVMwV_L-8" target="Rw42D6xPt4BI_WVMwV_L-9">
          <mxGeometry width="160" relative="1" as="geometry">
            <mxPoint x="330" y="400" as="sourcePoint" />
            <mxPoint x="490" y="400" as="targetPoint" />
          </mxGeometry>
        </mxCell>
        <mxCell id="Rw42D6xPt4BI_WVMwV_L-29" value="" style="endArrow=none;html=1;rounded=0;exitX=0.5;exitY=0.5;exitDx=0;exitDy=0;exitPerimeter=0;entryX=0;entryY=0.5;entryDx=0;entryDy=0;" edge="1" parent="1" source="Rw42D6xPt4BI_WVMwV_L-4" target="Rw42D6xPt4BI_WVMwV_L-6">
          <mxGeometry width="50" height="50" relative="1" as="geometry">
            <mxPoint x="380" y="430" as="sourcePoint" />
            <mxPoint x="430" y="380" as="targetPoint" />
          </mxGeometry>
        </mxCell>
        <mxCell id="Rw42D6xPt4BI_WVMwV_L-30" value="" style="endArrow=none;html=1;rounded=0;exitX=0.5;exitY=0.5;exitDx=0;exitDy=0;exitPerimeter=0;entryX=0;entryY=0.5;entryDx=0;entryDy=0;" edge="1" parent="1" source="Rw42D6xPt4BI_WVMwV_L-4" target="Rw42D6xPt4BI_WVMwV_L-7">
          <mxGeometry width="50" height="50" relative="1" as="geometry">
            <mxPoint x="380" y="430" as="sourcePoint" />
            <mxPoint x="430" y="380" as="targetPoint" />
          </mxGeometry>
        </mxCell>
        <mxCell id="Rw42D6xPt4BI_WVMwV_L-31" value="" style="endArrow=block;dashed=1;endFill=0;endSize=12;html=1;rounded=0;exitX=0.25;exitY=0.925;exitDx=0;exitDy=0;entryX=0.908;entryY=0.213;entryDx=0;entryDy=0;entryPerimeter=0;exitPerimeter=0;" edge="1" parent="1" source="Rw42D6xPt4BI_WVMwV_L-3" target="Rw42D6xPt4BI_WVMwV_L-6">
          <mxGeometry width="160" relative="1" as="geometry">
            <mxPoint x="310" y="190" as="sourcePoint" />
            <mxPoint x="307" y="248" as="targetPoint" />
          </mxGeometry>
        </mxCell>
        <mxCell id="Rw42D6xPt4BI_WVMwV_L-32" value="Extends" style="endArrow=block;endSize=16;endFill=0;html=1;rounded=0;exitX=1;exitY=0.5;exitDx=0;exitDy=0;entryX=0;entryY=0.5;entryDx=0;entryDy=0;" edge="1" parent="1" source="Rw42D6xPt4BI_WVMwV_L-11" target="Rw42D6xPt4BI_WVMwV_L-10">
          <mxGeometry width="160" relative="1" as="geometry">
            <mxPoint x="330" y="400" as="sourcePoint" />
            <mxPoint x="490" y="400" as="targetPoint" />
          </mxGeometry>
        </mxCell>
        <mxCell id="Rw42D6xPt4BI_WVMwV_L-33" value="" style="endArrow=block;dashed=1;endFill=0;endSize=12;html=1;rounded=0;exitX=0;exitY=0;exitDx=0;exitDy=0;entryX=0.942;entryY=0.663;entryDx=0;entryDy=0;entryPerimeter=0;" edge="1" parent="1" source="Rw42D6xPt4BI_WVMwV_L-37" target="Rw42D6xPt4BI_WVMwV_L-10">
          <mxGeometry width="160" relative="1" as="geometry">
            <mxPoint x="520" y="550" as="sourcePoint" />
            <mxPoint x="730" y="460" as="targetPoint" />
          </mxGeometry>
        </mxCell>
        <mxCell id="Rw42D6xPt4BI_WVMwV_L-34" value="" style="endArrow=block;dashed=1;endFill=0;endSize=12;html=1;rounded=0;entryX=0.692;entryY=0.925;entryDx=0;entryDy=0;entryPerimeter=0;exitX=0.408;exitY=-0.037;exitDx=0;exitDy=0;exitPerimeter=0;" edge="1" parent="1" source="Rw42D6xPt4BI_WVMwV_L-39" target="Rw42D6xPt4BI_WVMwV_L-10">
          <mxGeometry width="160" relative="1" as="geometry">
            <mxPoint x="570" y="550" as="sourcePoint" />
            <mxPoint x="671" y="657" as="targetPoint" />
          </mxGeometry>
        </mxCell>
        <mxCell id="Rw42D6xPt4BI_WVMwV_L-35" value="" style="endArrow=block;dashed=1;endFill=0;endSize=12;html=1;rounded=0;exitX=0.5;exitY=0;exitDx=0;exitDy=0;entryX=0.325;entryY=0.95;entryDx=0;entryDy=0;entryPerimeter=0;" edge="1" parent="1" source="Rw42D6xPt4BI_WVMwV_L-38" target="Rw42D6xPt4BI_WVMwV_L-10">
          <mxGeometry width="160" relative="1" as="geometry">
            <mxPoint x="570" y="620" as="sourcePoint" />
            <mxPoint x="560" y="550" as="targetPoint" />
          </mxGeometry>
        </mxCell>
        <mxCell id="Rw42D6xPt4BI_WVMwV_L-36" value="" style="endArrow=block;dashed=1;endFill=0;endSize=12;html=1;rounded=0;exitX=1;exitY=0;exitDx=0;exitDy=0;entryX=0.092;entryY=0.825;entryDx=0;entryDy=0;entryPerimeter=0;" edge="1" parent="1" source="Rw42D6xPt4BI_WVMwV_L-40" target="Rw42D6xPt4BI_WVMwV_L-10">
          <mxGeometry width="160" relative="1" as="geometry">
            <mxPoint x="610" y="670" as="sourcePoint" />
            <mxPoint x="470" y="560" as="targetPoint" />
          </mxGeometry>
        </mxCell>
        <mxCell id="Rw42D6xPt4BI_WVMwV_L-37" value="Обработка типов данных" style="ellipse;whiteSpace=wrap;html=1;" vertex="1" parent="1">
          <mxGeometry x="680" y="505" width="120" height="80" as="geometry" />
        </mxCell>
        <mxCell id="Rw42D6xPt4BI_WVMwV_L-38" value="Статистическая обработка" style="ellipse;whiteSpace=wrap;html=1;" vertex="1" parent="1">
          <mxGeometry x="450" y="584.5" width="120" height="80" as="geometry" />
        </mxCell>
        <mxCell id="Rw42D6xPt4BI_WVMwV_L-39" value="Структурная обработка" style="ellipse;whiteSpace=wrap;html=1;" vertex="1" parent="1">
          <mxGeometry x="580" y="560" width="120" height="80" as="geometry" />
        </mxCell>
        <mxCell id="Rw42D6xPt4BI_WVMwV_L-40" value="Фактическая обработка" style="ellipse;whiteSpace=wrap;html=1;" vertex="1" parent="1">
          <mxGeometry x="320" y="550" width="120" height="80" as="geometry" />
        </mxCell>
      </root>
    </mxGraphModel>
  </diagram>
</mxfile>
